<svg xmlns="http://www.w3.org/2000/svg" width="348.92" height="103.53" viewBox="0 0 348.92 103.53">
  <title>logo-dark</title>
  <g>
    <path d="M30.78,99.16a2.76,2.76,0,0,1,1.3-1.36c.83-.58,2.66-2.07,1.11-2.9-1.38-.74-4.54-1-6.3-1.13-6.49-.19-10.22-1.47-8.46-3,.85-.74,2.85-1.41,5.47-1.93a45.27,45.27,0,0,1-7.68.65c-5.43,0-8.2-1.18-6.18-2.6s8.06-2.55,13.49-2.54a22.2,22.2,0,0,1,4.89.46,28.37,28.37,0,0,0,7.14.57,35.21,35.21,0,0,0,6.88-.8l.25-.06a50.85,50.85,0,0,1,6.91-1.11c-1.76.15-3.56.23-5.27.22-6.11,0-8.83-1.12-6.09-2.44s9.92-2.39,16-2.37,8.83,1.12,6.09,2.44c-1.81.88-5.55,1.64-9.65,2,2.06-.17,4.23-.27,6.37-.26,7.65,0,12,1.33,9.79,2.92.61-.43.77-.85.46-1.22s-.18-.82.46-1.27c2.45-1.72,11.46-3.09,20.12-3.06s13.71,1.45,11.26,3.17c-1.89,1.33-7.7,2.45-14.24,2.88,0,0-6.66.55-8.79,1.69-1.83,1-.82,1.94-.5,2.19l.09.07a1,1,0,0,1,.06,1.86l-.29.22c3-1.7,11.27-2.83,20.2-2.65,10.53.21,18.06,2.17,16.82,4.38S101.73,98,91.2,97.82s-18.06-2.17-16.82-4.37a2.25,2.25,0,0,1,.7-.7c-3,1.7-11.09,2.82-19,2.58-.93,0-1.82-.08-2.67-.14,6.61.55,11,2.17,10.44,4.08-.74,2.33-8.74,4.2-17.88,4.17s-16-1.94-15.22-4.28M42,88.32c3.11.54,4.51,1.48,3.29,2.53l-.3.23-.12.09c1.53-1.16,5.38-2.1,10.07-2.59-2,.15-4,.24-6,.23A43.38,43.38,0,0,1,42,88.32Zm.49-3.73.25-.06ZM.78,94.52C3,92.91,9.24,91.79,14.73,92s8.13,1.75,5.91,3.37S12.18,98.14,6.7,97.9-1.43,96.14.78,94.52Z" fill="#e6e6e7"/>
    <path d="M.83,70.11C3,63.16,9.09,58,14.44,58.55s7.94,6.65,5.77,13.6S12,84.27,6.6,83.71-1.34,77.06.83,70.11" fill="#765ca7"/>
    <path d="M37.45,11.26C40.13,5.48,47.14.45,53.1,0S61.72,4,59,9.74,49.36,20.54,43.4,21,34.78,17,37.45,11.26" fill="#fcb24d"/>
    <path d="M72.74,59.4C74,50.07,83.27,42.52,93.55,42.52S111.18,50.07,110,59.4,99.44,76.28,89.16,76.28,71.53,68.72,72.74,59.4" fill="#f04f42"/>
    <path d="M41.61,25l.24-.28a21.65,21.65,0,0,1,14-7.36c7.48-.53,11.75,4.58,9.54,11.42S55.36,41.61,47.88,42.15a10.81,10.81,0,0,1-6.79-1.5,10.36,10.36,0,0,0-6.48-1.48,18.63,18.63,0,0,0-10.85,5A14,14,0,0,1,16,47.72c-5.3.38-8-4.26-6-10.36S17.85,26,23.15,25.63a6.09,6.09,0,0,1,4.77,1.52,7.78,7.78,0,0,0,7,1.77A13,13,0,0,0,41.61,25m0,0,.24-.28Z" fill="#83c184"/>
    <path d="M30.21,86.89a20.87,20.87,0,0,1,1.27-5.78c.81-2.5,2.6-8.87,1.08-12.23-1.35-3-4.43-3.9-6.15-4.19-6.33-.26-10-5.29-8.25-11.84,1.85-7,9.21-13.17,16.44-13.68S46.19,43.94,44.34,51q-.13.49-.29,1c-.09.29-.18.6-.26.91-1.94,7.3,1.63,13.64,8.15,15.4,6.68,1.58,11.2,8.1,10.6,16.28-.72,9.82-8.54,18.3-17.46,18.95S29.5,96.71,30.21,86.89" fill="#00a0dc"/>
    <path d="M43.78,52.87a20.21,20.21,0,0,1,11.65-13c4.63-2.45,8.54-6.58,10-11.08a10.38,10.38,0,0,0,.46-5.18,10.76,10.76,0,0,1,.45-5.32C68.72,10.91,77.52,4.43,86,3.83s13.39,4.9,11,12.29C95.13,21.83,89.46,27,83.07,29.33c0,0-6.51,2.83-8.59,7.8a14,14,0,0,0-.49,9.2l.09.27a13.85,13.85,0,0,1,.06,7.76c-2.22,8.36-10.81,14.8-19.2,14.39S41.56,61.23,43.78,52.87" fill="#f47b4a"/>
    <path d="M150.33,51.61a15.82,15.82,0,0,1-6.77,1.44c-6,0-10.54-4.33-10.54-11.35,0-6.27,3.76-11.48,10.73-11.48a13.51,13.51,0,0,1,6.4,1.44l1.26-4.2a17.38,17.38,0,0,0-7.65-1.63c-9.91,0-16.31,6.84-16.31,16.18s6,15.49,15.12,15.49a21.34,21.34,0,0,0,8.72-1.76l-.94-4.14" fill="#3d4440"/>
    <path d="M168.88,30c6.52,0,9.09,6.46,9.09,11.6,0,6.84-4,11.79-9.22,11.79s-9.16-5-9.16-11.67C159.6,36,162.42,30,168.88,30m.13-4.14c-8.34,0-15.05,6-15.05,16.06,0,9.6,6.4,15.62,14.55,15.62,7.27,0,15.11-4.89,15.11-16.12C183.62,32.17,177.72,25.83,169,25.83Z" fill="#3d4440" fill-rule="evenodd"/>
    <path d="M187.46,56.82h5.39V38.57a7.37,7.37,0,0,1,.44-2.7c.88-2.76,3.45-5.52,6.84-5.52,4.2,0,6.34,3.45,6.34,8.28V56.82h5.39V38.06a9.42,9.42,0,0,1,.44-2.76,7.25,7.25,0,0,1,6.59-5c4.39,0,6.59,3.45,6.59,9.35V56.82h5.39V39c0-10.54-6-13.17-10-13.17A10.19,10.19,0,0,0,214.18,28a12,12,0,0,0-3.45,4h-.12a9,9,0,0,0-8.53-6.08,10.49,10.49,0,0,0-9.6,5.58h-.19l-.25-5h-4.83c.13,2.51.25,5,.25,8.22V56.82" fill="#3d4440"/>
    <path d="M261.41,26.46h-5.52V45a7.58,7.58,0,0,1-.5,2.82,7.94,7.94,0,0,1-7.27,5.08c-5,0-6.77-4-6.77-9.72V26.46h-5.52V44.21c0,10.6,5.71,13.3,10.47,13.3a11.34,11.34,0,0,0,10-5.64h.13l.31,5h4.89c-.19-2.38-.25-5.14-.25-8.34v-22" fill="#93a6ae"/>
    <path d="M266.8,56.82h5.52V38.57a8.1,8.1,0,0,1,7.78-8.22c5.21,0,7,4.08,7,9v17.5h5.52V38.75c0-10.41-6.52-12.92-10.72-12.92a11.24,11.24,0,0,0-10,5.64h-.13l-.31-5h-4.89c.19,2.51.25,5,.25,8.22V56.82" fill="#93a6ae"/>
    <path d="M299.33,14.54A3.36,3.36,0,0,0,295.88,18a3.25,3.25,0,0,0,3.33,3.39A3.29,3.29,0,0,0,302.71,18a3.31,3.31,0,0,0-3.39-3.45m-2.76,42.27h5.52V26.46h-5.52Z" fill="#93a6ae" fill-rule="evenodd"/>
    <path d="M309.37,20.82v5.65h-4.7v4.2h4.7v16.6c0,3.54.63,6.23,2.13,7.92a7.87,7.87,0,0,0,6,2.32,15,15,0,0,0,4.89-.75l-.25-4.2a10.3,10.3,0,0,1-3.2.38c-3.07,0-4.14-2.13-4.14-5.9V30.66h7.9v-4.2h-7.9V19.18l-5.39,1.63" fill="#93a6ae"/>
    <path d="M320.39,26.46l11.16,28a3.81,3.81,0,0,1,.44,1.44,4,4,0,0,1-.44,1.32,17.43,17.43,0,0,1-4.64,6.15,14.6,14.6,0,0,1-4.83,2.7l1.38,4.58a15.66,15.66,0,0,0,6.77-3.51c3.76-3.32,6.46-8.59,10.41-19l8.28-21.64h-5.83l-6,17.81c-.75,2.2-1.38,4.52-1.94,6.33H335c-.5-1.82-1.26-4.2-2-6.21l-6.59-17.94h-6" fill="#93a6ae"/>
    <path d="M129.31,71.84a4,4,0,0,0,2,.5c1.65,0,2.62-.88,2.62-2.15,0-1.06-.64-1.68-1.85-2.13-.92-.37-1.33-.63-1.33-1.22s.41-1,1.17-1a2.71,2.71,0,0,1,1.44.43l.31-.94a3.25,3.25,0,0,0-1.72-.44A2.19,2.19,0,0,0,129.5,67c0,.85.6,1.55,1.88,2,.93.35,1.3.68,1.3,1.3s-.44,1.06-1.36,1.06a3.6,3.6,0,0,1-1.7-.5l-.31,1" fill="#3d4440"/>
    <path d="M135.56,72.18h1.25V67.89a1.74,1.74,0,0,1,.1-.63,1.77,1.77,0,0,1,1.59-1.3c1,0,1.47.81,1.47,1.94v4.27h1.25v-4.4a2.24,2.24,0,0,1,.1-.65A1.69,1.69,0,0,1,142.87,66c1,0,1.53.81,1.53,2.19v4h1.25V68c0-2.47-1.39-3.09-2.33-3.09a2.35,2.35,0,0,0-1.55.5,2.79,2.79,0,0,0-.8.93h0a2.08,2.08,0,0,0-2-1.43,2.43,2.43,0,0,0-2.23,1.31h0l-.06-1.16h-1.12c0,.59.06,1.18.06,1.93v5.2" fill="#3d4440"/>
    <path d="M151.44,69.78a1.47,1.47,0,0,1-.06.41,1.78,1.78,0,0,1-1.73,1.19,1.13,1.13,0,0,1-1.2-1.24c0-1.38,1.59-1.63,3-1.6v1.24m1.24-2c0-1.41-.52-2.9-2.68-2.9a4.53,4.53,0,0,0-2.33.62l.29.87a3.37,3.37,0,0,1,1.85-.53,1.45,1.45,0,0,1,1.6,1.63v.15c-2.73,0-4.24.93-4.24,2.65a2,2,0,0,0,2.16,2,2.62,2.62,0,0,0,2.16-1.06h0l.1.9h1.15a12.06,12.06,0,0,1-.1-1.71Z" fill="#3d4440" fill-rule="evenodd"/>
    <path d="M154.74,72.18H156v-3.8a3.92,3.92,0,0,1,0-.6,1.79,1.79,0,0,1,1.72-1.65,1.94,1.94,0,0,1,.44,0V64.94a2.55,2.55,0,0,0-.35,0,2.14,2.14,0,0,0-2,1.56h0l-.06-1.41h-1.12c0,.66.06,1.38.06,2.22v4.9" fill="#3d4440"/>
    <path d="M160.15,63.73v1.33h-1.09v1h1.09v3.9a2.8,2.8,0,0,0,.49,1.86,1.82,1.82,0,0,0,1.38.54,3.47,3.47,0,0,0,1.14-.18l-.06-1a2.36,2.36,0,0,1-.74.09c-.71,0-1-.5-1-1.38V66h1.84v-1H161.4V63.35l-1.25.38" fill="#3d4440"/>
    <path d="M164.71,73.9a19,19,0,0,0,1.4-3.58l-1.43.15a21.93,21.93,0,0,1-.87,3.53l.9-.1" fill="#3d4440"/>
    <path d="M175.55,71a3.64,3.64,0,0,1-1.57.34,2.43,2.43,0,0,1-2.45-2.66A2.46,2.46,0,0,1,174,65.94a3.11,3.11,0,0,1,1.49.34l.29-1a4,4,0,0,0-1.78-.38,3.61,3.61,0,0,0-3.79,3.8,3.37,3.37,0,0,0,3.51,3.64,4.91,4.91,0,0,0,2-.41l-.22-1" fill="#3d4440"/>
    <path d="M180.14,65.88c1.52,0,2.11,1.52,2.11,2.72,0,1.6-.92,2.77-2.14,2.77S178,70.19,178,68.63c0-1.34.66-2.75,2.16-2.75m0-1a3.47,3.47,0,0,0-3.5,3.77,3.38,3.38,0,0,0,3.38,3.67,3.47,3.47,0,0,0,3.51-3.78A3.35,3.35,0,0,0,180.17,64.91Z" fill="#3d4440" fill-rule="evenodd"/>
    <path d="M185.18,72.18h1.28V67.89a1.89,1.89,0,0,1,.09-.6A1.85,1.85,0,0,1,188.27,66c1.21,0,1.63,1,1.63,2.1v4.11h1.28V67.94c0-2.44-1.52-3-2.49-3a2.61,2.61,0,0,0-2.33,1.32h0l-.07-1.18h-1.14c0,.59.06,1.18.06,1.93v5.2" fill="#3d4440"/>
    <path d="M193.27,72.18h1.28V67.89a1.89,1.89,0,0,1,.09-.6A1.85,1.85,0,0,1,196.36,66c1.21,0,1.63,1,1.63,2.1v4.11h1.28V67.94c0-2.44-1.52-3-2.49-3a2.61,2.61,0,0,0-2.33,1.32h0l-.07-1.18h-1.14c0,.59.06,1.18.06,1.93v5.2" fill="#3d4440"/>
    <path d="M202.09,67.92a2.11,2.11,0,0,1,2-2.09,1.83,1.83,0,0,1,1.78,2.09h-3.74m4.94.93a3.19,3.19,0,0,0,0-.6c0-1.31-.6-3.34-2.91-3.34-2.06,0-3.31,1.68-3.31,3.83a3.31,3.31,0,0,0,3.47,3.61,5.7,5.7,0,0,0,2.36-.46l-.23-.93a4.55,4.55,0,0,1-2,.37,2.26,2.26,0,0,1-2.42-2.47Z" fill="#3d4440" fill-rule="evenodd"/>
    <path d="M213.47,71a3.64,3.64,0,0,1-1.57.34,2.43,2.43,0,0,1-2.45-2.66,2.46,2.46,0,0,1,2.49-2.69,3.11,3.11,0,0,1,1.49.34l.29-1a4,4,0,0,0-1.78-.38,3.61,3.61,0,0,0-3.79,3.8,3.37,3.37,0,0,0,3.51,3.64,4.91,4.91,0,0,0,2-.41l-.22-1" fill="#3d4440"/>
    <path d="M215.67,63.73v1.33h-1.09v1h1.09v3.9a2.8,2.8,0,0,0,.49,1.86,1.82,1.82,0,0,0,1.38.54,3.48,3.48,0,0,0,1.14-.18l-.06-1a2.37,2.37,0,0,1-.74.09c-.71,0-1-.5-1-1.38V66h1.84v-1h-1.84V63.35l-1.25.38" fill="#3d4440"/>
    <path d="M220.84,67.92a2.11,2.11,0,0,1,2-2.09,1.83,1.83,0,0,1,1.78,2.09h-3.74m4.94.93a3.19,3.19,0,0,0,0-.6c0-1.31-.6-3.34-2.91-3.34-2.06,0-3.31,1.68-3.31,3.83a3.3,3.3,0,0,0,3.47,3.61,5.7,5.7,0,0,0,2.36-.46L225.2,71a4.55,4.55,0,0,1-2,.37,2.26,2.26,0,0,1-2.42-2.47Z" fill="#3d4440" fill-rule="evenodd"/>
    <path d="M232.23,69.19a2.32,2.32,0,0,1-.06.56,2,2,0,0,1-1.88,1.55c-1.37,0-2.08-1.19-2.08-2.64s.79-2.74,2.11-2.74a1.89,1.89,0,0,1,1.85,1.49,2.35,2.35,0,0,1,.06.55v1.24m0-7.46V66h0a2.36,2.36,0,0,0-2.13-1.07c-1.71,0-3.18,1.44-3.16,3.81,0,2.16,1.33,3.62,3,3.62a2.54,2.54,0,0,0,2.38-1.4h0l.06,1.24h1.14c0-.49-.06-1.21-.06-1.84V61.73Z" fill="#3d4440" fill-rule="evenodd"/>
    <path d="M243.53,71a3.64,3.64,0,0,1-1.57.34,2.43,2.43,0,0,1-2.45-2.66A2.46,2.46,0,0,1,242,65.94a3.11,3.11,0,0,1,1.49.34l.29-1a4,4,0,0,0-1.78-.38,3.61,3.61,0,0,0-3.79,3.8,3.37,3.37,0,0,0,3.51,3.64,4.91,4.91,0,0,0,2-.41l-.22-1" fill="#3d4440"/>
    <path d="M248.12,65.88c1.52,0,2.11,1.52,2.11,2.72,0,1.6-.92,2.77-2.14,2.77S246,70.19,246,68.63c0-1.34.66-2.75,2.16-2.75m0-1a3.47,3.47,0,0,0-3.5,3.77A3.38,3.38,0,0,0,248,72.34a3.47,3.47,0,0,0,3.51-3.78A3.35,3.35,0,0,0,248.15,64.91Z" fill="#3d4440" fill-rule="evenodd"/>
    <path d="M253.17,72.18h1.25V67.89A1.93,1.93,0,0,1,256.11,66c1,0,1.47.81,1.47,1.94v4.27h1.25v-4.4a2.24,2.24,0,0,1,.1-.65A1.69,1.69,0,0,1,260.47,66c1,0,1.53.81,1.53,2.19v4h1.25V68c0-2.47-1.38-3.09-2.33-3.09a2.35,2.35,0,0,0-1.55.5,2.79,2.79,0,0,0-.8.93h0a2.08,2.08,0,0,0-2-1.43,2.43,2.43,0,0,0-2.23,1.31h0l-.06-1.16h-1.12c0,.59.06,1.18.06,1.93v5.2" fill="#3d4440"/>
    <path d="M265.32,72.18h1.25V67.89a1.74,1.74,0,0,1,.1-.63,1.77,1.77,0,0,1,1.59-1.3c1,0,1.47.81,1.47,1.94v4.27H271v-4.4a2.24,2.24,0,0,1,.1-.65A1.69,1.69,0,0,1,272.62,66c1,0,1.53.81,1.53,2.19v4h1.25V68c0-2.47-1.39-3.09-2.33-3.09a2.35,2.35,0,0,0-1.55.5,2.79,2.79,0,0,0-.8.93h0a2.08,2.08,0,0,0-2-1.43,2.43,2.43,0,0,0-2.23,1.31h0l-.06-1.16h-1.12c0,.59.06,1.18.06,1.93v5.2" fill="#3d4440"/>
    <path d="M283.38,65.05h-1.28v4.36a1.79,1.79,0,0,1-.12.66,1.85,1.85,0,0,1-1.69,1.19c-1.15,0-1.57-.93-1.57-2.28V65.05h-1.28v4.17c0,2.49,1.33,3.12,2.43,3.12A2.63,2.63,0,0,0,282.2,71h0l.07,1.16h1.14c0-.56-.06-1.21-.06-2V65.05" fill="#3d4440"/>
    <path d="M285.5,72.18h1.28V67.89a1.89,1.89,0,0,1,.09-.6A1.85,1.85,0,0,1,288.59,66c1.21,0,1.63,1,1.63,2.1v4.11h1.28V67.94c0-2.44-1.52-3-2.49-3a2.61,2.61,0,0,0-2.33,1.32h0l-.07-1.18h-1.14c0,.59.06,1.18.06,1.93v5.2" fill="#3d4440"/>
    <path d="M294.23,62.26a.79.79,0,0,0-.8.81.76.76,0,0,0,.77.8.8.8,0,0,0,0-1.6m-.64,9.92h1.28V65.05h-1.28Z" fill="#3d4440" fill-rule="evenodd"/>
    <path d="M297.29,63.73v1.33H296.2v1h1.09v3.9a2.8,2.8,0,0,0,.49,1.86,1.82,1.82,0,0,0,1.38.54,3.48,3.48,0,0,0,1.14-.18l-.06-1a2.36,2.36,0,0,1-.74.09c-.71,0-1-.5-1-1.38V66h1.84v-1h-1.84V63.35l-1.25.38" fill="#3d4440"/>
    <path d="M302.47,62.26a.79.79,0,0,0-.8.81.76.76,0,0,0,.77.8.8.8,0,0,0,0-1.6m-.64,9.92h1.28V65.05h-1.28Z" fill="#3d4440" fill-rule="evenodd"/>
    <path d="M306,67.92a2.11,2.11,0,0,1,2-2.09,1.83,1.83,0,0,1,1.78,2.09H306m4.94.93a3.21,3.21,0,0,0,0-.6c0-1.31-.6-3.34-2.91-3.34-2.06,0-3.31,1.68-3.31,3.83a3.31,3.31,0,0,0,3.47,3.61,5.7,5.7,0,0,0,2.36-.46l-.23-.93a4.55,4.55,0,0,1-2,.37,2.26,2.26,0,0,1-2.42-2.47Z" fill="#3d4440" fill-rule="evenodd"/>
    <path d="M312.06,71.84a4,4,0,0,0,2,.5c1.65,0,2.62-.88,2.62-2.15,0-1.06-.64-1.68-1.85-2.13-.92-.37-1.33-.63-1.33-1.22s.41-1,1.17-1a2.71,2.71,0,0,1,1.44.43l.31-.94a3.25,3.25,0,0,0-1.72-.44A2.19,2.19,0,0,0,312.25,67c0,.85.6,1.55,1.88,2,.93.35,1.3.68,1.3,1.3s-.44,1.06-1.36,1.06a3.6,3.6,0,0,1-1.7-.5l-.31,1" fill="#3d4440"/>
  </g>
</svg>
