<svg xmlns="http://www.w3.org/2000/svg" xmlns:xlink="http://www.w3.org/1999/xlink" width="500" zoomAndPan="magnify" viewBox="0 0 375 374.999991" height="500" preserveAspectRatio="xMidYMid meet" version="1.0"><defs><clipPath id="e91f1641e7"><path d="M 156 196.488281 L 195.679688 196.488281 L 195.679688 201.558594 L 156 201.558594 Z M 156 196.488281 " clip-rule="nonzero"/></clipPath><clipPath id="06bf08e692"><path d="M 170.261719 197.835938 L 170.140625 197.804688 C 169.0625 197.488281 168.363281 197.3125 165.574219 197.402344 C 162.785156 197.496094 158.191406 198.390625 157.101562 199.394531 C 155.953125 200.441406 158.003906 201.292969 161.882812 201.265625 C 163.898438 201.25 165.980469 200.992188 167.6875 200.601562 C 170.835938 199.871094 175.726562 199.734375 178.617188 200.46875 C 179.953125 200.816406 181.957031 201.019531 184.351562 201.003906 C 189.691406 200.972656 194.632812 199.804688 195.007812 198.554688 C 195.382812 197.300781 190.160156 196.5625 186.519531 196.664062 C 182.878906 196.785156 181.9375 197.023438 180.21875 197.429688 L 179.902344 197.507812 C 176.058594 198.417969 172.359375 198.464844 170.265625 197.835938 " clip-rule="nonzero"/></clipPath><clipPath id="6e2d24ed01"><path d="M 150 202.753906 L 166 202.753906 L 166 208 L 150 208 Z M 150 202.753906 " clip-rule="nonzero"/></clipPath><clipPath id="62b6db052d"><path d="M 155.335938 207.703125 C 151.144531 207.523438 149.09375 206.28125 150.46875 204.980469 C 151.773438 203.738281 155.84375 202.808594 159.796875 202.828125 C 163.972656 202.871094 166.761719 203.917969 165.667969 205.34375 C 164.585938 206.765625 159.796875 207.886719 155.335938 207.707031 " clip-rule="nonzero"/></clipPath><clipPath id="7fda62281b"><path d="M 163 199.472656 L 193 199.472656 L 193 212.894531 L 163 212.894531 Z M 163 199.472656 " clip-rule="nonzero"/></clipPath><clipPath id="e162d2a01a"><path d="M 171.429688 207.492188 L 171.28125 207.582031 C 170.082031 208.347656 169.304688 208.722656 170.652344 210.023438 C 171.996094 211.308594 178.898438 212.789062 184.980469 212.089844 C 191.238281 211.382812 193.875 209.242188 190.949219 207.507812 C 189.605469 206.699219 187.285156 206.144531 184.691406 205.875 C 180.15625 205.425781 177.761719 203.976562 179.496094 202.640625 C 180.289062 202.054688 180.320312 201.445312 179.4375 200.917969 C 177.667969 199.871094 172.789062 199.582031 168.609375 200.210938 C 164.433594 200.839844 162.34375 202.414062 163.21875 203.25 C 164.089844 204.089844 165.304688 204.238281 167.21875 204.433594 L 167.234375 204.433594 L 167.609375 204.476562 C 172.320312 204.925781 173.59375 206.125 171.425781 207.484375 " clip-rule="nonzero"/></clipPath><clipPath id="cf0c3b6470"><path d="M 198 201.261719 L 226 201.261719 L 226 209 L 198 209 Z M 198 201.261719 " clip-rule="nonzero"/></clipPath><clipPath id="e7323ffc63"><path d="M 222.519531 203.375 C 227.179688 205.023438 225.257812 207.175781 218.054688 208.015625 C 211.066406 208.808594 202.664062 207.957031 199.40625 206.265625 C 196.394531 204.726562 198.613281 202.972656 204.40625 202.207031 C 210.179688 201.425781 218.3125 201.894531 222.519531 203.375 " clip-rule="nonzero"/></clipPath><clipPath id="45537190c4"><path d="M 178 195 L 216 195 L 216 206.628906 L 178 206.628906 Z M 178 195 " clip-rule="nonzero"/></clipPath><clipPath id="f1e123b13a"><path d="M 206.847656 199.527344 L 207.21875 199.511719 C 210.347656 199.289062 212.238281 199.15625 214.644531 198.226562 C 217.042969 197.285156 215.511719 195.609375 209.976562 195.191406 C 204.855469 194.789062 198.671875 195.324219 195.753906 196.390625 C 194.289062 196.914062 193.855469 197.511719 194.351562 198.039062 C 195.292969 199.042969 192.074219 200.359375 186.851562 200.804688 C 184.570312 201 182.460938 201.375 180.964844 201.925781 C 177.734375 203.109375 178.167969 204.699219 182.761719 205.59375 C 187.355469 206.488281 195.664062 205.847656 198.359375 204.785156 C 201.054688 203.738281 200.585938 203.304688 199.898438 202.597656 L 199.882812 202.582031 L 199.761719 202.464844 C 198.207031 200.949219 201.214844 199.917969 206.847656 199.527344 " clip-rule="nonzero"/></clipPath><clipPath id="055e31f260"><path d="M 174 193 L 191 193 L 191 197 L 174 197 Z M 174 193 " clip-rule="nonzero"/></clipPath><clipPath id="45297280cc"><path d="M 176.441406 194.421875 C 179.003906 193.550781 183.78125 193.058594 187.3125 193.324219 C 191.097656 193.625 192.117188 194.675781 189.316406 195.664062 C 186.476562 196.664062 180.949219 197.132812 177.523438 196.726562 C 174.09375 196.320312 173.824219 195.320312 176.441406 194.421875 " clip-rule="nonzero"/></clipPath><clipPath id="5105fdb813"><path d="M 155.097656 153 L 194.734375 153 L 194.734375 175 L 155.097656 175 Z M 155.097656 153 " clip-rule="nonzero"/></clipPath><clipPath id="36cb95aa55"><path d="M 169.46875 160.265625 L 169.347656 160.144531 C 168.269531 159.140625 167.570312 158.589844 164.78125 159.320312 C 161.996094 160.054688 157.402344 164.050781 156.3125 167.882812 C 155.15625 171.898438 157.195312 174.753906 161.089844 174.066406 C 163.105469 173.726562 165.1875 172.476562 166.898438 170.773438 C 170.042969 167.617188 174.933594 166.417969 177.824219 168.664062 C 179.160156 169.769531 181.160156 170.253906 183.558594 169.847656 C 188.898438 168.917969 193.824219 163.917969 194.203125 159.25 C 194.578125 154.597656 189.367188 152.632812 185.734375 153.578125 C 182.09375 154.539062 181.148438 155.566406 179.429688 157.277344 L 179.429688 157.292969 L 179.117188 157.605469 C 175.265625 161.542969 171.574219 162.25 169.472656 160.269531 " clip-rule="nonzero"/></clipPath><clipPath id="c494cbcacf"><path d="M 149 181 L 165 181 L 165 198.277344 L 149 198.277344 Z M 149 181 " clip-rule="nonzero"/></clipPath><clipPath id="5d476f932b"><path d="M 154.839844 198.253906 C 150.964844 198.222656 149.058594 194.285156 150.335938 189.660156 C 151.550781 185.261719 155.320312 181.519531 158.992188 181.085938 C 162.851562 180.617188 165.429688 183.824219 164.425781 188.789062 C 163.421875 193.773438 158.972656 198.265625 154.839844 198.25 " clip-rule="nonzero"/></clipPath><clipPath id="5821b9add3"><path d="M 162.019531 167 L 192 167 L 192 212 L 162.019531 212 Z M 162.019531 167 " clip-rule="nonzero"/></clipPath><clipPath id="caecf33f5c"><path d="M 171.191406 195.488281 L 171.039062 195.832031 C 169.859375 198.765625 169.078125 200.261719 170.429688 204.769531 C 171.761719 209.273438 178.585938 213.636719 184.589844 210.21875 C 190.804688 206.746094 193.40625 198.601562 190.515625 192.707031 C 189.171875 189.96875 186.878906 188.277344 184.316406 187.707031 C 179.828125 186.703125 177.445312 181.804688 179.164062 176.6875 C 179.957031 174.472656 179.988281 172.238281 179.121094 170.460938 C 177.371094 166.898438 172.539062 166.597656 168.40625 169.457031 C 164.273438 172.332031 162.207031 178.363281 163.074219 181.269531 C 163.941406 184.191406 165.125 184.578125 167.027344 185.011719 L 167.042969 185.011719 L 167.417969 185.085938 C 172.070312 186.058594 173.347656 190.222656 171.191406 195.488281 " clip-rule="nonzero"/></clipPath><clipPath id="d22c48eca3"><path d="M 198 170 L 225 170 L 225 194 L 198 194 Z M 198 170 " clip-rule="nonzero"/></clipPath><clipPath id="2474fd21e1"><path d="M 222.339844 174.289062 C 226.816406 179.441406 224.976562 187.328125 218.046875 191.265625 C 211.335938 195.082031 203.273438 193.226562 200.125 187.71875 C 197.234375 182.71875 199.363281 176.234375 204.929688 172.707031 C 210.5 169.1875 218.300781 169.636719 222.339844 174.289062 " clip-rule="nonzero"/></clipPath><clipPath id="c378363eca"><path d="M 178 144 L 216 144 L 216 188 L 178 188 Z M 178 144 " clip-rule="nonzero"/></clipPath><clipPath id="ab3403daa4"><path d="M 206.546875 161.292969 L 206.921875 161.160156 C 216.609375 157.171875 215.707031 151.5 215.191406 149.601562 C 214.5625 147.269531 212.730469 145.28125 209.671875 144.855469 C 204.550781 144.136719 198.371094 147.027344 195.453125 151.335938 C 193.980469 153.523438 193.546875 155.734375 194.042969 157.597656 C 194.984375 161.175781 191.761719 166.472656 186.539062 168.867188 C 184.261719 169.902344 182.152344 171.621094 180.65625 173.832031 C 177.40625 178.65625 177.859375 184.414062 182.453125 187.050781 C 187.046875 189.703125 195.355469 186.089844 198.050781 181.828125 C 200.746094 177.566406 200.277344 176.019531 199.589844 173.535156 L 199.574219 173.519531 L 199.453125 173.050781 C 197.898438 167.769531 200.90625 163.519531 206.535156 161.285156 " clip-rule="nonzero"/></clipPath><clipPath id="14729788d5"><path d="M 174 141 L 191 141 L 191 156 L 174 156 Z M 174 141 " clip-rule="nonzero"/></clipPath><clipPath id="9665ae537f"><path d="M 176.144531 147.015625 C 178.703125 143.417969 183.480469 140.925781 187.011719 141.402344 C 190.804688 141.921875 191.816406 145.609375 189.019531 149.667969 C 186.171875 153.785156 180.652344 156.285156 177.222656 155.3125 C 173.796875 154.34375 173.523438 150.660156 176.144531 147.019531 " clip-rule="nonzero"/></clipPath></defs><g clip-path="url(#e91f1641e7)"><g clip-path="url(#06bf08e692)"><path fill="#e6e7e8" d="M 147.234375 138.628906 L 227.765625 138.628906 L 227.765625 214.980469 L 147.234375 214.980469 Z M 147.234375 138.628906 " fill-opacity="1" fill-rule="nonzero"/></g></g><g clip-path="url(#6e2d24ed01)"><g clip-path="url(#62b6db052d)"><path fill="#e6e7e8" d="M 147.234375 138.628906 L 227.765625 138.628906 L 227.765625 214.980469 L 147.234375 214.980469 Z M 147.234375 138.628906 " fill-opacity="1" fill-rule="nonzero"/></g></g><g clip-path="url(#7fda62281b)"><g clip-path="url(#e162d2a01a)"><path fill="#e6e7e8" d="M 147.234375 138.628906 L 227.765625 138.628906 L 227.765625 214.980469 L 147.234375 214.980469 Z M 147.234375 138.628906 " fill-opacity="1" fill-rule="nonzero"/></g></g><g clip-path="url(#cf0c3b6470)"><g clip-path="url(#e7323ffc63)"><path fill="#e6e7e8" d="M 147.234375 138.628906 L 227.765625 138.628906 L 227.765625 214.980469 L 147.234375 214.980469 Z M 147.234375 138.628906 " fill-opacity="1" fill-rule="nonzero"/></g></g><g clip-path="url(#45537190c4)"><g clip-path="url(#f1e123b13a)"><path fill="#e6e7e8" d="M 147.234375 138.628906 L 227.765625 138.628906 L 227.765625 214.980469 L 147.234375 214.980469 Z M 147.234375 138.628906 " fill-opacity="1" fill-rule="nonzero"/></g></g><g clip-path="url(#055e31f260)"><g clip-path="url(#45297280cc)"><path fill="#e6e7e8" d="M 147.234375 138.628906 L 227.765625 138.628906 L 227.765625 214.980469 L 147.234375 214.980469 Z M 147.234375 138.628906 " fill-opacity="1" fill-rule="nonzero"/></g></g><g clip-path="url(#5105fdb813)"><g clip-path="url(#36cb95aa55)"><path fill="#59b563" d="M 147.234375 138.628906 L 227.765625 138.628906 L 227.765625 214.980469 L 147.234375 214.980469 Z M 147.234375 138.628906 " fill-opacity="1" fill-rule="nonzero"/></g></g><g clip-path="url(#c494cbcacf)"><g clip-path="url(#5d476f932b)"><path fill="#6e2463" d="M 147.234375 138.628906 L 227.765625 138.628906 L 227.765625 214.980469 L 147.234375 214.980469 Z M 147.234375 138.628906 " fill-opacity="1" fill-rule="nonzero"/></g></g><g clip-path="url(#5821b9add3)"><g clip-path="url(#caecf33f5c)"><path fill="#4798ed" d="M 147.234375 138.628906 L 227.765625 138.628906 L 227.765625 214.980469 L 147.234375 214.980469 Z M 147.234375 138.628906 " fill-opacity="1" fill-rule="nonzero"/></g></g><g clip-path="url(#d22c48eca3)"><g clip-path="url(#2474fd21e1)"><path fill="#ff0000" d="M 147.234375 138.628906 L 227.765625 138.628906 L 227.765625 214.980469 L 147.234375 214.980469 Z M 147.234375 138.628906 " fill-opacity="1" fill-rule="nonzero"/></g></g><g clip-path="url(#c378363eca)"><g clip-path="url(#ab3403daa4)"><path fill="#ff5924" d="M 147.234375 138.628906 L 227.765625 138.628906 L 227.765625 214.980469 L 147.234375 214.980469 Z M 147.234375 138.628906 " fill-opacity="1" fill-rule="nonzero"/></g></g><g clip-path="url(#14729788d5)"><g clip-path="url(#9665ae537f)"><path fill="#ffa61f" d="M 147.234375 138.628906 L 227.765625 138.628906 L 227.765625 214.980469 L 147.234375 214.980469 Z M 147.234375 138.628906 " fill-opacity="1" fill-rule="nonzero"/></g></g></svg>